# xmcd CD database file
#
# Track frame offsets:
#	182
#	16086
#	36740
#	56326
#	75028
#	102116
#	116957
#	138318
#	161321
#	182058
#	206085
#	230968
#	258031
#	275875
#	297646
#
# Disc length: 4100 seconds
#
# Revision: 0
# Processed by: cddbd v1.5PL3 Copyright (c) Steve Scherf et al.
# Submitted via: CDex 1.50
#
DISCID=d710020f
DTITLE=Marc Laferriere quintet - Full of Beans
DYEAR=1900
DGENRE=Jazz
TTITLE0=Perdido street stomp
TTITLE1=Blues in the air
TTITLE2=It's a sin tell a lie
TTITLE3=Jungle blues
TTITLE4=I want a big butter and egg man from the west
TTITLE5=Empty ballroom blues
TTITLE6=When I grow too old to dream
TTITLE7=Royal garden blues
TTITLE8=Keepin' out of mischief now
TTITLE9=Struttin'with some barbecue
TTITLE10=That's a plenty
TTITLE11=If I could be with you one hour tonigth
TTITLE12=I can't bielieve that you're in love with me
TTITLE13=China boy
TTITLE14=Petite fleur
EXTD=
EXTT0=
EXTT1=
EXTT2=
EXTT3=
EXTT4=
EXTT5=
EXTT6=
EXTT7=
EXTT8=
EXTT9=
EXTT10=
EXTT11=
EXTT12=
EXTT13=
EXTT14=
PLAYORDER=
